<svg width="18" height="18" viewBox="0 0 18 18" fill="none" xmlns="http://www.w3.org/2000/svg">
    <g clip-path="url(#clip0_702_32808)">
        <path
            d="M9 0.428711C4.393 0.428711 0.428711 4.393 0.428711 9C0.428711 12.7554 3.09357 15.7859 6.60714 16.6967C7.07143 16.7673 7.25 16.482 7.25 16.232C7.25 16.0177 7.25 15.3754 7.25 14.6254C4.66071 15.0893 4.19643 13.7673 4.19643 13.7673C3.76786 12.7673 3.19643 12.4468 3.19643 12.4468C2.39286 11.8754 3.30357 11.8754 3.30357 11.8754C4.25 11.946 4.75 12.8032 4.75 12.8032C5.57143 14.1076 6.78571 13.8032 7.32143 13.589C7.39286 13.0532 7.60714 12.6254 7.85714 12.4107C5.76786 12.1964 3.5 11.589 3.5 8.58904C3.5 7.66047 3.89286 6.87538 4.46429 6.30395C4.35714 6.05395 4 5.10761 4.57143 4.05395C4.57143 4.05395 5.39286 3.80318 7.25 4.94604C8.03571 4.76747 8.89286 4.69683 9.75 4.69683C10.6071 4.69683 11.4643 4.76747 12.25 4.94604C14.1071 3.80318 14.9286 4.05395 14.9286 4.05395C15.5 5.10761 15.1429 6.05395 15.0357 6.30395C15.6071 6.87538 16 7.66047 16 8.58904C16 11.589 13.75 12.1964 11.6429 12.4107C12.0714 12.7673 12.5714 13.589 12.5714 14.6967C12.5714 16.1254 12.5714 16.589 12.5714 16.6967C12.5714 16.9467 12.75 17.232 13.2143 16.6967C16.6964 15.7859 17.5714 12.7554 17.5714 9C17.5714 4.393 13.6071 0.428711 9 0.428711Z"
            fill="#757185" />
    </g>
    <defs>
        <clipPath id="clip0_702_32808">
            <rect width="17.1429" height="17.1429" fill="white" transform="translate(0.427734 0.428711)" />
        </clipPath>
    </defs>
</svg>